# xmcd
#
# Track frame offsets:
#	150
#	16666
#	36307
#	48306
#	59091
#	71261
#	87021
#	102081
#	118508
#	140502
#
# Disc length: 2136 seconds
#
# Revision: 1
# Processed by: cddbd v1.5.2PL0 Copyright (c) Steve Scherf et al.
# Submitted via: audiograbber 1.83.01
#
DISCID=7e08560a
DTITLE=Walking Rain - Sixteen Miles Walking Rain
DYEAR=1900
DGENRE=
TTITLE0=Sixteen Miles 
TTITLE1=Lucky That Way
TTITLE2=Waiting In Your Welfare Line
TTITLE3=In My Fashion
TTITLE4=Wasen´t Born To Follow
TTITLE5=Memory Train
TTITLE6=Right To Sing The Blues
TTITLE7=Little Sister
TTITLE8=Some Of These Days
TTITLE9=Owens Valley Blues
EXTD=
EXTT0=
EXTT1=
EXTT2=
EXTT3=
EXTT4=
EXTT5=
EXTT6=
EXTT7=
EXTT8=
EXTT9=
PLAYORDER=
